<mxfile host="Electron" modified="2024-05-12T08:12:56.387Z" agent="Mozilla/5.0 (Macintosh; Intel Mac OS X 10_15_7) AppleWebKit/537.36 (KHTML, like Gecko) draw.io/24.2.5 Chrome/120.0.6099.109 Electron/28.1.0 Safari/537.36" etag="ypUvFfPMu4s_kGAJV2yM" version="24.2.5" type="device">
  <diagram name="第 1 页" id="urDeTJfYUr4FEjcfC0v-">
    <mxGraphModel dx="1111" dy="854" grid="1" gridSize="10" guides="1" tooltips="1" connect="1" arrows="1" fold="1" page="1" pageScale="1" pageWidth="827" pageHeight="1169" math="0" shadow="0">
      <root>
        <mxCell id="0" />
        <mxCell id="1" parent="0" />
        <mxCell id="ry-NeTRRRaXeRN9fFepq-26" style="edgeStyle=orthogonalEdgeStyle;rounded=0;orthogonalLoop=1;jettySize=auto;html=1;exitX=0.5;exitY=1;exitDx=0;exitDy=0;entryX=0.5;entryY=0;entryDx=0;entryDy=0;" edge="1" parent="1" source="ry-NeTRRRaXeRN9fFepq-1" target="ry-NeTRRRaXeRN9fFepq-9">
          <mxGeometry relative="1" as="geometry" />
        </mxCell>
        <mxCell id="ry-NeTRRRaXeRN9fFepq-1" value="Project" style="rounded=1;whiteSpace=wrap;html=1;" vertex="1" parent="1">
          <mxGeometry x="190" y="205" width="120" height="50" as="geometry" />
        </mxCell>
        <mxCell id="ry-NeTRRRaXeRN9fFepq-2" value="Application 1" style="rounded=1;whiteSpace=wrap;html=1;" vertex="1" parent="1">
          <mxGeometry x="354" y="138" width="120" height="40" as="geometry" />
        </mxCell>
        <mxCell id="ry-NeTRRRaXeRN9fFepq-3" value="Application 2" style="rounded=1;whiteSpace=wrap;html=1;" vertex="1" parent="1">
          <mxGeometry x="354" y="198" width="120" height="40" as="geometry" />
        </mxCell>
        <mxCell id="ry-NeTRRRaXeRN9fFepq-27" style="edgeStyle=orthogonalEdgeStyle;rounded=0;orthogonalLoop=1;jettySize=auto;html=1;exitX=0.5;exitY=1;exitDx=0;exitDy=0;entryX=0.5;entryY=0;entryDx=0;entryDy=0;" edge="1" parent="1" source="ry-NeTRRRaXeRN9fFepq-4" target="ry-NeTRRRaXeRN9fFepq-15">
          <mxGeometry relative="1" as="geometry" />
        </mxCell>
        <mxCell id="ry-NeTRRRaXeRN9fFepq-4" value="Application n" style="rounded=1;whiteSpace=wrap;html=1;" vertex="1" parent="1">
          <mxGeometry x="355" y="280" width="120" height="40" as="geometry" />
        </mxCell>
        <mxCell id="ry-NeTRRRaXeRN9fFepq-5" value="" style="shape=curlyBracket;whiteSpace=wrap;html=1;rounded=1;labelPosition=left;verticalLabelPosition=middle;align=right;verticalAlign=middle;" vertex="1" parent="1">
          <mxGeometry x="325" y="150" width="20" height="160" as="geometry" />
        </mxCell>
        <mxCell id="ry-NeTRRRaXeRN9fFepq-6" value="" style="shape=waypoint;sketch=0;fillStyle=solid;size=6;pointerEvents=1;points=[];fillColor=none;resizable=0;rotatable=0;perimeter=centerPerimeter;snapToPoint=1;" vertex="1" parent="1">
          <mxGeometry x="385" y="249" width="20" height="20" as="geometry" />
        </mxCell>
        <mxCell id="ry-NeTRRRaXeRN9fFepq-7" value="" style="shape=waypoint;sketch=0;fillStyle=solid;size=6;pointerEvents=1;points=[];fillColor=none;resizable=0;rotatable=0;perimeter=centerPerimeter;snapToPoint=1;" vertex="1" parent="1">
          <mxGeometry x="405" y="249" width="20" height="20" as="geometry" />
        </mxCell>
        <mxCell id="ry-NeTRRRaXeRN9fFepq-8" value="" style="shape=waypoint;sketch=0;fillStyle=solid;size=6;pointerEvents=1;points=[];fillColor=none;resizable=0;rotatable=0;perimeter=centerPerimeter;snapToPoint=1;" vertex="1" parent="1">
          <mxGeometry x="425" y="249" width="20" height="20" as="geometry" />
        </mxCell>
        <mxCell id="ry-NeTRRRaXeRN9fFepq-9" value="&lt;b&gt;Directory&lt;/b&gt;" style="swimlane;fontStyle=0;childLayout=stackLayout;horizontal=1;startSize=26;fillColor=none;horizontalStack=0;resizeParent=1;resizeParentMax=0;resizeLast=0;collapsible=1;marginBottom=0;html=1;" vertex="1" parent="1">
          <mxGeometry x="190" y="351" width="120" height="182" as="geometry" />
        </mxCell>
        <mxCell id="ry-NeTRRRaXeRN9fFepq-10" value="settings.py" style="text;strokeColor=none;fillColor=none;align=center;verticalAlign=top;spacingLeft=4;spacingRight=4;overflow=hidden;rotatable=0;points=[[0,0.5],[1,0.5]];portConstraint=eastwest;whiteSpace=wrap;html=1;" vertex="1" parent="ry-NeTRRRaXeRN9fFepq-9">
          <mxGeometry y="26" width="120" height="26" as="geometry" />
        </mxCell>
        <mxCell id="ry-NeTRRRaXeRN9fFepq-11" value="urls.py" style="text;strokeColor=none;fillColor=none;align=center;verticalAlign=top;spacingLeft=4;spacingRight=4;overflow=hidden;rotatable=0;points=[[0,0.5],[1,0.5]];portConstraint=eastwest;whiteSpace=wrap;html=1;" vertex="1" parent="ry-NeTRRRaXeRN9fFepq-9">
          <mxGeometry y="52" width="120" height="26" as="geometry" />
        </mxCell>
        <mxCell id="ry-NeTRRRaXeRN9fFepq-12" value="wsgi.py" style="text;strokeColor=none;fillColor=none;align=center;verticalAlign=top;spacingLeft=4;spacingRight=4;overflow=hidden;rotatable=0;points=[[0,0.5],[1,0.5]];portConstraint=eastwest;whiteSpace=wrap;html=1;" vertex="1" parent="ry-NeTRRRaXeRN9fFepq-9">
          <mxGeometry y="78" width="120" height="26" as="geometry" />
        </mxCell>
        <mxCell id="ry-NeTRRRaXeRN9fFepq-35" value="asgi.py" style="text;strokeColor=none;fillColor=none;align=center;verticalAlign=top;spacingLeft=4;spacingRight=4;overflow=hidden;rotatable=0;points=[[0,0.5],[1,0.5]];portConstraint=eastwest;whiteSpace=wrap;html=1;" vertex="1" parent="ry-NeTRRRaXeRN9fFepq-9">
          <mxGeometry y="104" width="120" height="26" as="geometry" />
        </mxCell>
        <mxCell id="ry-NeTRRRaXeRN9fFepq-39" value="__init__.py" style="text;strokeColor=none;fillColor=none;align=center;verticalAlign=top;spacingLeft=4;spacingRight=4;overflow=hidden;rotatable=0;points=[[0,0.5],[1,0.5]];portConstraint=eastwest;whiteSpace=wrap;html=1;" vertex="1" parent="ry-NeTRRRaXeRN9fFepq-9">
          <mxGeometry y="130" width="120" height="26" as="geometry" />
        </mxCell>
        <mxCell id="ry-NeTRRRaXeRN9fFepq-14" value="templates" style="text;strokeColor=none;fillColor=none;align=center;verticalAlign=top;spacingLeft=4;spacingRight=4;overflow=hidden;rotatable=0;points=[[0,0.5],[1,0.5]];portConstraint=eastwest;whiteSpace=wrap;html=1;" vertex="1" parent="ry-NeTRRRaXeRN9fFepq-9">
          <mxGeometry y="156" width="120" height="26" as="geometry" />
        </mxCell>
        <mxCell id="ry-NeTRRRaXeRN9fFepq-15" value="&lt;b&gt;Directory&lt;/b&gt;" style="swimlane;fontStyle=0;childLayout=stackLayout;horizontal=1;startSize=26;fillColor=none;horizontalStack=0;resizeParent=1;resizeParentMax=0;resizeLast=0;collapsible=1;marginBottom=0;html=1;" vertex="1" parent="1">
          <mxGeometry x="355" y="351" width="120" height="312" as="geometry" />
        </mxCell>
        <mxCell id="ry-NeTRRRaXeRN9fFepq-16" value="apps.py" style="text;strokeColor=none;fillColor=none;align=center;verticalAlign=top;spacingLeft=4;spacingRight=4;overflow=hidden;rotatable=0;points=[[0,0.5],[1,0.5]];portConstraint=eastwest;whiteSpace=wrap;html=1;" vertex="1" parent="ry-NeTRRRaXeRN9fFepq-15">
          <mxGeometry y="26" width="120" height="26" as="geometry" />
        </mxCell>
        <mxCell id="ry-NeTRRRaXeRN9fFepq-17" value="urls.py" style="text;strokeColor=none;fillColor=none;align=center;verticalAlign=top;spacingLeft=4;spacingRight=4;overflow=hidden;rotatable=0;points=[[0,0.5],[1,0.5]];portConstraint=eastwest;whiteSpace=wrap;html=1;" vertex="1" parent="ry-NeTRRRaXeRN9fFepq-15">
          <mxGeometry y="52" width="120" height="26" as="geometry" />
        </mxCell>
        <mxCell id="ry-NeTRRRaXeRN9fFepq-18" value="models.py" style="text;strokeColor=none;fillColor=none;align=center;verticalAlign=top;spacingLeft=4;spacingRight=4;overflow=hidden;rotatable=0;points=[[0,0.5],[1,0.5]];portConstraint=eastwest;whiteSpace=wrap;html=1;" vertex="1" parent="ry-NeTRRRaXeRN9fFepq-15">
          <mxGeometry y="78" width="120" height="26" as="geometry" />
        </mxCell>
        <mxCell id="ry-NeTRRRaXeRN9fFepq-19" value="views.py" style="text;strokeColor=none;fillColor=none;align=center;verticalAlign=top;spacingLeft=4;spacingRight=4;overflow=hidden;rotatable=0;points=[[0,0.5],[1,0.5]];portConstraint=eastwest;whiteSpace=wrap;html=1;" vertex="1" parent="ry-NeTRRRaXeRN9fFepq-15">
          <mxGeometry y="104" width="120" height="26" as="geometry" />
        </mxCell>
        <mxCell id="ry-NeTRRRaXeRN9fFepq-21" value="forms.py" style="text;strokeColor=none;fillColor=none;align=center;verticalAlign=top;spacingLeft=4;spacingRight=4;overflow=hidden;rotatable=0;points=[[0,0.5],[1,0.5]];portConstraint=eastwest;whiteSpace=wrap;html=1;" vertex="1" parent="ry-NeTRRRaXeRN9fFepq-15">
          <mxGeometry y="130" width="120" height="26" as="geometry" />
        </mxCell>
        <mxCell id="ry-NeTRRRaXeRN9fFepq-22" value="admin.py" style="text;strokeColor=none;fillColor=none;align=center;verticalAlign=top;spacingLeft=4;spacingRight=4;overflow=hidden;rotatable=0;points=[[0,0.5],[1,0.5]];portConstraint=eastwest;whiteSpace=wrap;html=1;" vertex="1" parent="ry-NeTRRRaXeRN9fFepq-15">
          <mxGeometry y="156" width="120" height="26" as="geometry" />
        </mxCell>
        <mxCell id="ry-NeTRRRaXeRN9fFepq-23" value="signals.py" style="text;strokeColor=none;fillColor=none;align=center;verticalAlign=top;spacingLeft=4;spacingRight=4;overflow=hidden;rotatable=0;points=[[0,0.5],[1,0.5]];portConstraint=eastwest;whiteSpace=wrap;html=1;" vertex="1" parent="ry-NeTRRRaXeRN9fFepq-15">
          <mxGeometry y="182" width="120" height="26" as="geometry" />
        </mxCell>
        <mxCell id="ry-NeTRRRaXeRN9fFepq-24" value="tests&lt;span style=&quot;background-color: initial;&quot;&gt;.py&lt;/span&gt;" style="text;strokeColor=none;fillColor=none;align=center;verticalAlign=top;spacingLeft=4;spacingRight=4;overflow=hidden;rotatable=0;points=[[0,0.5],[1,0.5]];portConstraint=eastwest;whiteSpace=wrap;html=1;" vertex="1" parent="ry-NeTRRRaXeRN9fFepq-15">
          <mxGeometry y="208" width="120" height="26" as="geometry" />
        </mxCell>
        <mxCell id="ry-NeTRRRaXeRN9fFepq-25" value="&lt;span style=&quot;background-color: initial;&quot;&gt;utils.py&lt;/span&gt;" style="text;strokeColor=none;fillColor=none;align=center;verticalAlign=top;spacingLeft=4;spacingRight=4;overflow=hidden;rotatable=0;points=[[0,0.5],[1,0.5]];portConstraint=eastwest;whiteSpace=wrap;html=1;" vertex="1" parent="ry-NeTRRRaXeRN9fFepq-15">
          <mxGeometry y="234" width="120" height="26" as="geometry" />
        </mxCell>
        <mxCell id="ry-NeTRRRaXeRN9fFepq-20" value="templates" style="text;strokeColor=none;fillColor=none;align=center;verticalAlign=top;spacingLeft=4;spacingRight=4;overflow=hidden;rotatable=0;points=[[0,0.5],[1,0.5]];portConstraint=eastwest;whiteSpace=wrap;html=1;" vertex="1" parent="ry-NeTRRRaXeRN9fFepq-15">
          <mxGeometry y="260" width="120" height="26" as="geometry" />
        </mxCell>
        <mxCell id="ry-NeTRRRaXeRN9fFepq-36" value="__init__.py" style="text;strokeColor=none;fillColor=none;align=center;verticalAlign=top;spacingLeft=4;spacingRight=4;overflow=hidden;rotatable=0;points=[[0,0.5],[1,0.5]];portConstraint=eastwest;whiteSpace=wrap;html=1;" vertex="1" parent="ry-NeTRRRaXeRN9fFepq-15">
          <mxGeometry y="286" width="120" height="26" as="geometry" />
        </mxCell>
        <mxCell id="ry-NeTRRRaXeRN9fFepq-37" style="edgeStyle=orthogonalEdgeStyle;rounded=0;orthogonalLoop=1;jettySize=auto;html=1;exitX=0;exitY=0.5;exitDx=0;exitDy=0;entryX=1;entryY=0.5;entryDx=0;entryDy=0;" edge="1" parent="1" source="ry-NeTRRRaXeRN9fFepq-16" target="ry-NeTRRRaXeRN9fFepq-10">
          <mxGeometry relative="1" as="geometry" />
        </mxCell>
        <mxCell id="ry-NeTRRRaXeRN9fFepq-38" value="" style="edgeStyle=orthogonalEdgeStyle;rounded=0;orthogonalLoop=1;jettySize=auto;html=1;entryX=1;entryY=0.5;entryDx=0;entryDy=0;" edge="1" parent="1" source="ry-NeTRRRaXeRN9fFepq-17" target="ry-NeTRRRaXeRN9fFepq-11">
          <mxGeometry relative="1" as="geometry" />
        </mxCell>
      </root>
    </mxGraphModel>
  </diagram>
</mxfile>
